<svg width="80" height="11.4" viewBox="-10 0 161 23" fill="none" xmlns="http://www.w3.org/2000/svg">
<path d="M15.4563 18.8162H7.07228L5.72828 22.7842H0.000281274L8.12828 0.320179H14.4643L22.5923 22.7842H16.8003L15.4563 18.8162ZM14.0483 14.5922L11.2643 6.36818L8.51228 14.5922H14.0483ZM43.686 7.55218C43.686 8.85351 43.3874 10.0482 42.79 11.1362C42.1927 12.2028 41.2754 13.0668 40.038 13.7282C38.8007 14.3895 37.2647 14.7202 35.43 14.7202H32.038V22.7842H26.566V0.320179H35.43C37.222 0.320179 38.7367 0.629512 39.974 1.24818C41.2114 1.86684 42.1394 2.72018 42.758 3.80818C43.3767 4.89618 43.686 6.14418 43.686 7.55218ZM35.014 10.3682C36.0594 10.3682 36.838 10.1228 37.35 9.63218C37.862 9.14151 38.118 8.44818 38.118 7.55218C38.118 6.65618 37.862 5.96285 37.35 5.47218C36.838 4.98151 36.0594 4.73618 35.014 4.73618H32.038V10.3682H35.014ZM58.6588 23.0082C56.5468 23.0082 54.6054 22.5175 52.8348 21.5362C51.0854 20.5548 49.6881 19.1895 48.6428 17.4402C47.6188 15.6695 47.1068 13.6855 47.1068 11.4882C47.1068 9.29085 47.6188 7.31751 48.6428 5.56818C49.6881 3.81885 51.0854 2.45351 52.8348 1.47218C54.6054 0.490846 56.5468 0.000179291 58.6588 0.000179291C60.7708 0.000179291 62.7014 0.490846 64.4508 1.47218C66.2214 2.45351 67.6081 3.81885 68.6108 5.56818C69.6348 7.31751 70.1468 9.29085 70.1468 11.4882C70.1468 13.6855 69.6348 15.6695 68.6108 17.4402C67.5868 19.1895 66.2001 20.5548 64.4508 21.5362C62.7014 22.5175 60.7708 23.0082 58.6588 23.0082ZM58.6588 18.0162C60.4508 18.0162 61.8801 17.4188 62.9468 16.2242C64.0348 15.0295 64.5788 13.4508 64.5788 11.4882C64.5788 9.50418 64.0348 7.92551 62.9468 6.75218C61.8801 5.55751 60.4508 4.96018 58.6588 4.96018C56.8454 4.96018 55.3948 5.54685 54.3068 6.72018C53.2401 7.89351 52.7068 9.48285 52.7068 11.4882C52.7068 13.4722 53.2401 15.0615 54.3068 16.2562C55.3948 17.4295 56.8454 18.0162 58.6588 18.0162ZM80.163 0.320179V22.7842H74.691V0.320179H80.163ZM99.6125 18.8162H91.2285L89.8845 22.7842H84.1565L92.2845 0.320179H98.6205L106.749 22.7842H100.957L99.6125 18.8162ZM98.2045 14.5922L95.4205 6.36818L92.6685 14.5922H98.2045ZM109.794 11.5202C109.794 9.30151 110.274 7.32818 111.234 5.60018C112.194 3.85085 113.528 2.49618 115.234 1.53618C116.962 0.554845 118.914 0.0641785 121.09 0.0641785C123.757 0.0641785 126.04 0.768178 127.938 2.17618C129.837 3.58418 131.106 5.50418 131.746 7.93618H125.73C125.282 6.99751 124.642 6.28285 123.81 5.79218C123 5.30151 122.072 5.05618 121.026 5.05618C119.341 5.05618 117.976 5.64285 116.93 6.81618C115.885 7.98951 115.362 9.55751 115.362 11.5202C115.362 13.4828 115.885 15.0508 116.93 16.2242C117.976 17.3975 119.341 17.9842 121.026 17.9842C122.072 17.9842 123 17.7388 123.81 17.2482C124.642 16.7575 125.282 16.0428 125.73 15.1042H131.746C131.106 17.5362 129.837 19.4562 127.938 20.8642C126.04 22.2508 123.757 22.9442 121.09 22.9442C118.914 22.9442 116.962 22.4642 115.234 21.5042C113.528 20.5228 112.194 19.1682 111.234 17.4402C110.274 15.7122 109.794 13.7388 109.794 11.5202ZM142.069 4.70418V9.24818H149.397V13.4722H142.069V18.4002H150.357V22.7842H136.597V0.320179H150.357V4.70418H142.069Z" fill="url(#paint0_linear_912_1671)"/>
<defs>
<linearGradient id="paint0_linear_912_1671" x1="2.67578" y1="5.7931" x2="147.417" y2="46.9173" gradientUnits="userSpaceOnUse">
<stop stop-color="#9B51E0"/>
<stop offset="1" stop-color="#3081ED"/>
</linearGradient>
</defs>
</svg>
